<svg width="60" height="60" viewBox="0 0 60 60" fill="none" xmlns="http://www.w3.org/2000/svg">
<g clip-path="url(#clip0_2_133)">
<path opacity="0.2" d="M30.0004 7.5C25.4487 7.49973 21.0039 8.87997 17.253 11.4585C13.5021 14.037 10.6214 17.6925 8.99132 21.9423C7.36126 26.1921 7.05849 30.8364 8.12297 35.2619C9.18745 39.6874 11.5691 43.686 14.9535 46.7297C16.3651 43.9521 18.5181 41.6196 21.1739 39.9905C23.8297 38.3614 26.8847 37.4994 30.0004 37.5C28.1462 37.5 26.3336 36.9502 24.7919 35.92C23.2502 34.8899 22.0486 33.4257 21.339 31.7127C20.6294 29.9996 20.4438 28.1146 20.8055 26.296C21.1673 24.4775 22.0601 22.807 23.3713 21.4959C24.6824 20.1848 26.3528 19.2919 28.1714 18.9301C29.99 18.5684 31.875 18.7541 33.588 19.4636C35.3011 20.1732 36.7653 21.3748 37.7954 22.9165C38.8256 24.4582 39.3754 26.2708 39.3754 28.125C39.3754 30.6114 38.3877 32.996 36.6295 34.7541C34.8714 36.5123 32.4868 37.5 30.0004 37.5C33.1158 37.4992 36.1706 38.3609 38.8264 39.9895C41.4823 41.6182 43.6354 43.9502 45.0473 46.7273C48.4308 43.6835 50.8117 39.6851 51.8757 35.26C52.9396 30.8349 52.6366 26.1912 51.0067 21.9419C49.3767 17.6926 46.4965 14.0375 42.7461 11.4591C38.9957 8.88069 34.5516 7.50025 30.0004 7.5Z" fill="url(#paint0_linear_2_133)"/>
<path d="M14.9531 46.7273C16.3639 43.9486 18.5165 41.6148 21.1724 39.9847C23.8283 38.3545 26.8837 37.4915 30 37.4915C33.1163 37.4915 36.1717 38.3545 38.8276 39.9847C41.4835 41.6148 43.6361 43.9486 45.0469 46.7273" stroke="#CDFF05" stroke-width="2" stroke-linecap="round" stroke-linejoin="round"/>
<path d="M30 52.5C42.4264 52.5 52.5 42.4264 52.5 30C52.5 17.5736 42.4264 7.5 30 7.5C17.5736 7.5 7.5 17.5736 7.5 30C7.5 42.4264 17.5736 52.5 30 52.5Z" stroke="#CDFF05" stroke-width="2" stroke-linecap="round" stroke-linejoin="round"/>
<path d="M30 37.5C35.1777 37.5 39.375 33.3027 39.375 28.125C39.375 22.9473 35.1777 18.75 30 18.75C24.8223 18.75 20.625 22.9473 20.625 28.125C20.625 33.3027 24.8223 37.5 30 37.5Z" stroke="#CDFF05" stroke-width="2" stroke-linecap="round" stroke-linejoin="round"/>
</g>
<defs>
<linearGradient id="paint0_linear_2_133" x1="29.9991" y1="7.5" x2="29.9991" y2="46.7297" gradientUnits="userSpaceOnUse">
<stop stop-color="#CDFF05"/>
<stop offset="1" stop-color="#CDFF05" stop-opacity="0"/>
</linearGradient>
<clipPath id="clip0_2_133">
<rect width="60" height="60" fill="white"/>
</clipPath>
</defs>
</svg>
